{
    "asset" : {
        "generator" : "Khronos glTF Blender I/O v1.7.33",
        "version" : "2.0"
    },
    "scene" : 0,
    "scenes" : [
        {
            "name" : "Scene",
            "nodes" : [
                2
            ]
        }
    ],
    "nodes" : [
        {
            "mesh" : 0,
            "name" : "Gun1",
            "rotation" : [
                -0.000269418116658926,
                -0.0002695024013519287,
                -0.7071067690849304,
                0.7071067094802856
            ],
            "scale" : [
                0.5936424136161804,
                0.5936424136161804,
                0.5936424136161804
            ],
            "translation" : [
                0.4000000059604645,
                -2.299999713897705,
                0.04999999701976776
            ]
        },
        {
            "camera" : 0,
            "name" : "Camera",
            "rotation" : [
                -0.7071067690849304,
                0,
                0,
                0.7071067690849304
            ]
        },
        {
            "children" : [
                0
            ],
            "name" : "Player",
            "translation" : [
                -0.4165380001068115,
                3.5336101055145264,
                54.970298767089844
            ]
        }
    ],
    "cameras" : [
        {
            "name" : "Camera.001",
            "perspective" : {
                "aspectRatio" : 1.7777777777777777,
                "yfov" : 1,
                "zfar" : 1000,
                "znear" : 0.10000000149011612
            },
            "type" : "perspective"
        }
    ],
    "materials" : [
        {
            "doubleSided" : true,
            "name" : "handgun",
            "pbrMetallicRoughness" : {
                "baseColorTexture" : {
                    "index" : 0
                },
                "metallicFactor" : 0,
                "roughnessFactor" : 0.5
            }
        },
        {
            "doubleSided" : true,
            "name" : "handgun_handgun_C.jpg",
            "pbrMetallicRoughness" : {
                "baseColorTexture" : {
                    "index" : 1
                },
                "metallicFactor" : 0,
                "roughnessFactor" : 0.5
            }
        }
    ],
    "meshes" : [
        {
            "name" : "Cube.002_Cube.003",
            "primitives" : [
                {
                    "attributes" : {
                        "POSITION" : 0,
                        "NORMAL" : 1,
                        "TEXCOORD_0" : 2
                    },
                    "indices" : 3,
                    "material" : 0
                },
                {
                    "attributes" : {
                        "POSITION" : 4,
                        "NORMAL" : 5,
                        "TEXCOORD_0" : 6
                    },
                    "indices" : 7,
                    "material" : 1
                }
            ]
        }
    ],
    "textures" : [
        {
            "sampler" : 0,
            "source" : 0
        },
        {
            "sampler" : 0,
            "source" : 0
        }
    ],
    "images" : [
        {
            "mimeType" : "image/jpeg",
            "name" : "handgun_C",
            "uri" : "handgun_C.jpg"
        }
    ],
    "accessors" : [
        {
            "bufferView" : 0,
            "componentType" : 5126,
            "count" : 2966,
            "max" : [
                0.8523499965667725,
                0.1015309989452362,
                0.6110110282897949
            ],
            "min" : [
                -0.922989010810852,
                -0.1015309989452362,
                -0.6452510952949524
            ],
            "type" : "VEC3"
        },
        {
            "bufferView" : 1,
            "componentType" : 5126,
            "count" : 2966,
            "type" : "VEC3"
        },
        {
            "bufferView" : 2,
            "componentType" : 5126,
            "count" : 2966,
            "type" : "VEC2"
        },
        {
            "bufferView" : 3,
            "componentType" : 5123,
            "count" : 6234,
            "type" : "SCALAR"
        },
        {
            "bufferView" : 4,
            "componentType" : 5126,
            "count" : 16582,
            "max" : [
                0.8741850256919861,
                0.12390200048685074,
                0.5238859057426453
            ],
            "min" : [
                -0.9760249853134155,
                -0.12610800564289093,
                -0.5667501091957092
            ],
            "type" : "VEC3"
        },
        {
            "bufferView" : 5,
            "componentType" : 5126,
            "count" : 16582,
            "type" : "VEC3"
        },
        {
            "bufferView" : 6,
            "componentType" : 5126,
            "count" : 16582,
            "type" : "VEC2"
        },
        {
            "bufferView" : 7,
            "componentType" : 5123,
            "count" : 59160,
            "type" : "SCALAR"
        }
    ],
    "bufferViews" : [
        {
            "buffer" : 0,
            "byteLength" : 35592,
            "byteOffset" : 0
        },
        {
            "buffer" : 0,
            "byteLength" : 35592,
            "byteOffset" : 35592
        },
        {
            "buffer" : 0,
            "byteLength" : 23728,
            "byteOffset" : 71184
        },
        {
            "buffer" : 0,
            "byteLength" : 12468,
            "byteOffset" : 94912
        },
        {
            "buffer" : 0,
            "byteLength" : 198984,
            "byteOffset" : 107380
        },
        {
            "buffer" : 0,
            "byteLength" : 198984,
            "byteOffset" : 306364
        },
        {
            "buffer" : 0,
            "byteLength" : 132656,
            "byteOffset" : 505348
        },
        {
            "buffer" : 0,
            "byteLength" : 118320,
            "byteOffset" : 638004
        }
    ],
    "samplers" : [
        {
            "magFilter" : 9729,
            "minFilter" : 9987
        }
    ],
    "buffers" : [
        {
            "byteLength" : 756324,
            "uri" : "map.bin"
        }
    ]
}
